<svg height="2654" width="720" xmlns="http://www.w3.org/2000/svg">
<rect height="2654" fill="#555" width="720"></rect>
<text fill="#7f7" font-family="Courier New" font-size="12" xml:space="preserve">
<tspan x="10" y="26">65 megabytes</tspan>
<tspan x="10" y="42">└─┬ mean-cli@0.12.15 </tspan>
<tspan x="10" y="58">  ├── async-series@0.0.1 </tspan>
<tspan x="10" y="74">  ├── bower@1.8.0 </tspan>
<tspan x="10" y="90">  ├─┬ chalk@1.1.3 </tspan>
<tspan x="10" y="106">  │ ├── ansi-styles@2.2.1 </tspan>
<tspan x="10" y="122">  │ ├── escape-string-regexp@1.0.5 </tspan>
<tspan x="10" y="138">  │ ├─┬ has-ansi@2.0.0 </tspan>
<tspan x="10" y="154">  │ │ └── ansi-regex@2.1.1 </tspan>
<tspan x="10" y="170">  │ ├── strip-ansi@3.0.1 </tspan>
<tspan x="10" y="186">  │ └── supports-color@2.0.0 </tspan>
<tspan x="10" y="202">  ├─┬ commander@2.9.0 </tspan>
<tspan x="10" y="218">  │ └── graceful-readlink@1.0.1 </tspan>
<tspan x="10" y="234">  ├── crypto@0.0.3 </tspan>
<tspan x="10" y="250">  ├─┬ inquirer@1.2.3 </tspan>
<tspan x="10" y="266">  │ ├── ansi-escapes@1.4.0 </tspan>
<tspan x="10" y="282">  │ ├─┬ cli-cursor@1.0.2 </tspan>
<tspan x="10" y="298">  │ │ └─┬ restore-cursor@1.0.1 </tspan>
<tspan x="10" y="314">  │ │   ├── exit-hook@1.1.1 </tspan>
<tspan x="10" y="330">  │ │   └── onetime@1.1.0 </tspan>
<tspan x="10" y="346">  │ ├── cli-width@2.1.0 </tspan>
<tspan x="10" y="362">  │ ├─┬ external-editor@1.1.1 </tspan>
<tspan x="10" y="378">  │ │ ├─┬ spawn-sync@1.0.15 </tspan>
<tspan x="10" y="394">  │ │ │ ├─┬ concat-stream@1.6.0 </tspan>
<tspan x="10" y="410">  │ │ │ │ ├─┬ readable-stream@2.2.6 </tspan>
<tspan x="10" y="426">  │ │ │ │ │ ├── buffer-shims@1.0.0 </tspan>
<tspan x="10" y="442">  │ │ │ │ │ ├── isarray@1.0.0 </tspan>
<tspan x="10" y="458">  │ │ │ │ │ ├── process-nextick-args@1.0.7 </tspan>
<tspan x="10" y="474">  │ │ │ │ │ └── util-deprecate@1.0.2 </tspan>
<tspan x="10" y="490">  │ │ │ │ └── typedarray@0.0.6 </tspan>
<tspan x="10" y="506">  │ │ │ └── os-shim@0.1.3 </tspan>
<tspan x="10" y="522">  │ │ └─┬ tmp@0.0.29 </tspan>
<tspan x="10" y="538">  │ │   └── os-tmpdir@1.0.2 </tspan>
<tspan x="10" y="554">  │ ├─┬ figures@1.7.0 </tspan>
<tspan x="10" y="570">  │ │ └── object-assign@4.1.1 </tspan>
<tspan x="10" y="586">  │ ├── mute-stream@0.0.6 </tspan>
<tspan x="10" y="602">  │ ├─┬ pinkie-promise@2.0.1 </tspan>
<tspan x="10" y="618">  │ │ └── pinkie@2.0.4 </tspan>
<tspan x="10" y="634">  │ ├─┬ run-async@2.3.0 </tspan>
<tspan x="10" y="650">  │ │ └── is-promise@2.1.0 </tspan>
<tspan x="10" y="666">  │ ├── rx@4.1.0 </tspan>
<tspan x="10" y="682">  │ ├─┬ string-width@1.0.2 </tspan>
<tspan x="10" y="698">  │ │ ├── code-point-at@1.1.0 </tspan>
<tspan x="10" y="714">  │ │ └─┬ is-fullwidth-code-point@1.0.0 </tspan>
<tspan x="10" y="730">  │ │   └── number-is-nan@1.0.1 </tspan>
<tspan x="10" y="746">  │ └── through@2.3.8 </tspan>
<tspan x="10" y="762">  ├── lodash@4.17.4 </tspan>
<tspan x="10" y="778">  ├─┬ mongoose@4.4.20 </tspan>
<tspan x="10" y="794">  │ ├── async@1.5.2 </tspan>
<tspan x="10" y="810">  │ ├── bson@0.4.23 </tspan>
<tspan x="10" y="826">  │ ├── hooks-fixed@1.1.0 </tspan>
<tspan x="10" y="842">  │ ├── kareem@1.0.1 </tspan>
<tspan x="10" y="858">  │ ├─┬ mongodb@2.1.18 </tspan>
<tspan x="10" y="874">  │ │ ├── es6-promise@3.0.2 </tspan>
<tspan x="10" y="890">  │ │ ├─┬ mongodb-core@1.3.18 </tspan>
<tspan x="10" y="906">  │ │ │ └─┬ require_optional@1.0.0 </tspan>
<tspan x="10" y="922">  │ │ │   ├── resolve-from@2.0.0 </tspan>
<tspan x="10" y="938">  │ │ │   └── semver@5.3.0 </tspan>
<tspan x="10" y="954">  │ │ └─┬ readable-stream@1.0.31 </tspan>
<tspan x="10" y="970">  │ │   ├── core-util-is@1.0.2 </tspan>
<tspan x="10" y="986">  │ │   ├── isarray@0.0.1 </tspan>
<tspan x="10" y="1002">  │ │   └── string_decoder@0.10.31 </tspan>
<tspan x="10" y="1018">  │ ├── mpath@0.2.1 </tspan>
<tspan x="10" y="1034">  │ ├── mpromise@0.5.5 </tspan>
<tspan x="10" y="1050">  │ ├─┬ mquery@1.11.0 </tspan>
<tspan x="10" y="1066">  │ │ ├── bluebird@2.10.2 </tspan>
<tspan x="10" y="1082">  │ │ ├── debug@2.2.0 </tspan>
<tspan x="10" y="1098">  │ │ └── sliced@0.0.5 </tspan>
<tspan x="10" y="1114">  │ ├── ms@0.7.1 </tspan>
<tspan x="10" y="1130">  │ ├── muri@1.1.0 </tspan>
<tspan x="10" y="1146">  │ ├── regexp-clone@0.0.1 </tspan>
<tspan x="10" y="1162">  │ └── sliced@1.0.1 </tspan>
<tspan x="10" y="1178">  ├── opener@1.4.3 </tspan>
<tspan x="10" y="1194">  ├── progress@1.1.8 </tspan>
<tspan x="10" y="1210">  ├─┬ prompt@1.0.0 </tspan>
<tspan x="10" y="1226">  │ ├── colors@1.1.2 </tspan>
<tspan x="10" y="1242">  │ ├── pkginfo@0.4.0 </tspan>
<tspan x="10" y="1258">  │ ├── read@1.0.7 </tspan>
<tspan x="10" y="1274">  │ ├── revalidator@0.1.8 </tspan>
<tspan x="10" y="1290">  │ ├─┬ utile@0.3.0 </tspan>
<tspan x="10" y="1306">  │ │ ├── async@0.9.2 </tspan>
<tspan x="10" y="1322">  │ │ ├── deep-equal@0.2.2 </tspan>
<tspan x="10" y="1338">  │ │ ├── i@0.3.5 </tspan>
<tspan x="10" y="1354">  │ │ ├─┬ mkdirp@0.5.1 </tspan>
<tspan x="10" y="1370">  │ │ │ └── minimist@0.0.8 </tspan>
<tspan x="10" y="1386">  │ │ ├── ncp@1.0.1 </tspan>
<tspan x="10" y="1402">  │ │ └── rimraf@2.6.1 </tspan>
<tspan x="10" y="1418">  │ └─┬ winston@2.1.1 </tspan>
<tspan x="10" y="1434">  │   ├── async@1.0.0 </tspan>
<tspan x="10" y="1450">  │   ├── colors@1.0.3 </tspan>
<tspan x="10" y="1466">  │   ├── cycle@1.0.3 </tspan>
<tspan x="10" y="1482">  │   ├── eyes@0.1.8 </tspan>
<tspan x="10" y="1498">  │   ├── pkginfo@0.3.1 </tspan>
<tspan x="10" y="1514">  │   └── stack-trace@0.0.9 </tspan>
<tspan x="10" y="1530">  ├─┬ request@2.81.0 </tspan>
<tspan x="10" y="1546">  │ ├── aws-sign2@0.6.0 </tspan>
<tspan x="10" y="1562">  │ ├── aws4@1.6.0 </tspan>
<tspan x="10" y="1578">  │ ├── caseless@0.12.0 </tspan>
<tspan x="10" y="1594">  │ ├─┬ combined-stream@1.0.5 </tspan>
<tspan x="10" y="1610">  │ │ └── delayed-stream@1.0.0 </tspan>
<tspan x="10" y="1626">  │ ├── extend@3.0.0 </tspan>
<tspan x="10" y="1642">  │ ├── forever-agent@0.6.1 </tspan>
<tspan x="10" y="1658">  │ ├─┬ form-data@2.1.2 </tspan>
<tspan x="10" y="1674">  │ │ └── asynckit@0.4.0 </tspan>
<tspan x="10" y="1690">  │ ├─┬ har-validator@4.2.1 </tspan>
<tspan x="10" y="1706">  │ │ ├─┬ ajv@4.11.5 </tspan>
<tspan x="10" y="1722">  │ │ │ ├── co@4.6.0 </tspan>
<tspan x="10" y="1738">  │ │ │ └─┬ json-stable-stringify@1.0.1 </tspan>
<tspan x="10" y="1754">  │ │ │   └── jsonify@0.0.0 </tspan>
<tspan x="10" y="1770">  │ │ └── har-schema@1.0.5 </tspan>
<tspan x="10" y="1786">  │ ├─┬ hawk@3.1.3 </tspan>
<tspan x="10" y="1802">  │ │ ├── boom@2.10.1 </tspan>
<tspan x="10" y="1818">  │ │ ├── cryptiles@2.0.5 </tspan>
<tspan x="10" y="1834">  │ │ ├── hoek@2.16.3 </tspan>
<tspan x="10" y="1850">  │ │ └── sntp@1.0.9 </tspan>
<tspan x="10" y="1866">  │ ├─┬ http-signature@1.1.1 </tspan>
<tspan x="10" y="1882">  │ │ ├── assert-plus@0.2.0 </tspan>
<tspan x="10" y="1898">  │ │ ├─┬ jsprim@1.4.0 </tspan>
<tspan x="10" y="1914">  │ │ │ ├── assert-plus@1.0.0 </tspan>
<tspan x="10" y="1930">  │ │ │ ├── extsprintf@1.0.2 </tspan>
<tspan x="10" y="1946">  │ │ │ ├── json-schema@0.2.3 </tspan>
<tspan x="10" y="1962">  │ │ │ └── verror@1.3.6 </tspan>
<tspan x="10" y="1978">  │ │ └─┬ sshpk@1.11.0 </tspan>
<tspan x="10" y="1994">  │ │   ├── asn1@0.2.3 </tspan>
<tspan x="10" y="2010">  │ │   ├── assert-plus@1.0.0 </tspan>
<tspan x="10" y="2026">  │ │   ├── bcrypt-pbkdf@1.0.1 </tspan>
<tspan x="10" y="2042">  │ │   ├─┬ dashdash@1.14.1 </tspan>
<tspan x="10" y="2058">  │ │   │ └── assert-plus@1.0.0 </tspan>
<tspan x="10" y="2074">  │ │   ├── ecc-jsbn@0.1.1 </tspan>
<tspan x="10" y="2090">  │ │   ├─┬ getpass@0.1.6 </tspan>
<tspan x="10" y="2106">  │ │   │ └── assert-plus@1.0.0 </tspan>
<tspan x="10" y="2122">  │ │   ├── jodid25519@1.0.2 </tspan>
<tspan x="10" y="2138">  │ │   ├── jsbn@0.1.1 </tspan>
<tspan x="10" y="2154">  │ │   └── tweetnacl@0.14.5 </tspan>
<tspan x="10" y="2170">  │ ├── is-typedarray@1.0.0 </tspan>
<tspan x="10" y="2186">  │ ├── isstream@0.1.2 </tspan>
<tspan x="10" y="2202">  │ ├── json-stringify-safe@5.0.1 </tspan>
<tspan x="10" y="2218">  │ ├─┬ mime-types@2.1.15 </tspan>
<tspan x="10" y="2234">  │ │ └── mime-db@1.27.0 </tspan>
<tspan x="10" y="2250">  │ ├── oauth-sign@0.8.2 </tspan>
<tspan x="10" y="2266">  │ ├── performance-now@0.2.0 </tspan>
<tspan x="10" y="2282">  │ ├── qs@6.4.0 </tspan>
<tspan x="10" y="2298">  │ ├── safe-buffer@5.0.1 </tspan>
<tspan x="10" y="2314">  │ ├── stringstream@0.0.5 </tspan>
<tspan x="10" y="2330">  │ ├─┬ tough-cookie@2.3.2 </tspan>
<tspan x="10" y="2346">  │ │ └── punycode@1.4.1 </tspan>
<tspan x="10" y="2362">  │ ├── tunnel-agent@0.6.0 </tspan>
<tspan x="10" y="2378">  │ └── uuid@3.0.1 </tspan>
<tspan x="10" y="2394">  └─┬ shelljs@0.7.7 </tspan>
<tspan x="10" y="2410">    ├─┬ glob@7.1.1 </tspan>
<tspan x="10" y="2426">    │ ├── fs.realpath@1.0.0 </tspan>
<tspan x="10" y="2442">    │ ├─┬ inflight@1.0.6 </tspan>
<tspan x="10" y="2458">    │ │ └── wrappy@1.0.2 </tspan>
<tspan x="10" y="2474">    │ ├── inherits@2.0.3 </tspan>
<tspan x="10" y="2490">    │ ├─┬ minimatch@3.0.3 </tspan>
<tspan x="10" y="2506">    │ │ └─┬ brace-expansion@1.1.6 </tspan>
<tspan x="10" y="2522">    │ │   ├── balanced-match@0.4.2 </tspan>
<tspan x="10" y="2538">    │ │   └── concat-map@0.0.1 </tspan>
<tspan x="10" y="2554">    │ ├── once@1.4.0 </tspan>
<tspan x="10" y="2570">    │ └── path-is-absolute@1.0.1 </tspan>
<tspan x="10" y="2586">    ├── interpret@1.0.2 </tspan>
<tspan x="10" y="2602">    └─┬ rechoir@0.6.2 </tspan>
<tspan x="10" y="2618">      └─┬ resolve@1.3.2 </tspan>
<tspan x="10" y="2634">        └── path-parse@1.0.5</tspan>
</text>
</svg>
